<svg width="137" height="137" viewBox="0 0 137 137" fill="none" xmlns="http://www.w3.org/2000/svg">
<g clip-path="url(#clip0_290_601)">
<path d="M50.7092 65.1572C48.8022 71.8177 40.4 73.9162 35.5853 68.9344L18.0187 50.758C13.204 45.7762 15.5877 37.4505 22.3095 35.7717L46.834 29.6467C53.5557 27.968 59.5741 34.1952 57.6671 40.8558L50.7092 65.1572Z" fill="black"/>
<circle cx="93" cy="55" r="18" fill="black"/>
<ellipse cx="68.7565" cy="98" rx="12" ry="5" fill="black"/>
<path d="M85.7565 4.57764e-05C83.7717 4.37273 81.4338 7.57261 76.9385 14.4838C72.5126 21.2883 66.901 28.5702 60.8145 33.12C57.8593 35.3291 53.9619 39.0698 49.0665 43.7911C44.3017 48.3866 38.7864 53.7123 32.9336 58.6333C27.0967 63.541 20.718 68.2253 14.1448 71.4688C7.59501 74.7008 7.03465 76.7889 -0.24353 75.7163V65.6877C3.93024 66.3028 3.73903 64.2801 9.18483 61.593C14.6069 58.9174 20.2031 54.8715 25.7347 50.2206C31.2508 45.5827 36.4986 40.5207 41.3054 35.8848C45.9815 31.3749 50.4647 27.0392 54.1135 24.3117C58.5931 20.9629 63.3466 15.0214 67.5846 8.50578C71.7532 2.09689 71.3329 3.91397 73.1094 4.57764e-05H85.7565Z" fill="black"/>
</g>
<defs>
<clipPath id="clip0_290_601">
<rect width="137" height="137" fill="white"/>
</clipPath>
</defs>
</svg>
